<svg version="1.0" xmlns="http://www.w3.org/2000/svg" width="269.2257995605469" height="263" preserveAspectRatio="xMidYMid meet" style=""><rect id="backgroundrect" width="100%" height="100%" x="0" y="0" fill="none" stroke="none" style="" class=""/>


<g class="currentLayer" style=""><title>Layer 1</title>

















































<g class="selected" id="svg_1" opacity="1" fill="#ffffff" fill-opacity="1"><path d="M148.17063903786521,9.967559516342561 c41.13126711661429,15.098118131130397 67.22529679274597,47.334640627327715 67.22529679274597,82.0195066042489 c0,10.201431169682701 3.5381735154076814,20.810919586152703 9.729977167371127,28.564007275111557 c9.287705477945165,12.241717403619239 9.287705477945165,12.649774650406547 0.8845433788519214,18.362576105428857 c-7.518618720241324,4.896686961447696 -11.056792235649008,19.178690599003474 -10.614520546223046,44.88629714660387 c0,11.017545663257316 -11.941335614500932,17.546461611854244 -30.959018259817224,17.546461611854244 c-18.133139266464372,0 -24.767214607853774,12.649774650406547 -17.69086757703841,35.909037717283105 c2.653630136555762,9.385316676108081 7.518618720241324,17.138404365066933 10.614520546223046,17.138404365066933 c9.729977167371127,0 45.553984010873904,-24.07537756045117 57.93759131480079,-38.765438444794256 c33.61264839637298,-41.2137819255181 41.13126711661429,-95.07733850144274 18.57541095589033,-137.10723492053546 c-21.229041092446092,-39.98961018515618 -64.12939496676425,-69.77778920062966 -109.24110728821219,-75.08253340886465 l-19.902226024168215,-2.4483434807238473 l23.440399539575893,8.977259429320776 z" id="svg_2" opacity="1" class="" fill="#ffffff" fill-opacity="1"/><path d="M81.82988562397122,20.577047932812636 c2.653630136555762,0.8161144935746167 7.960890409667284,0.8161144935746167 11.056792235649008,0 c2.653630136555762,-1.224171740361924 0.44227168942596085,-2.0402862339365413 -5.7495319625374846,-2.0402862339365413 c-6.191803651963443,0 -8.403162099093246,0.8161144935746167 -5.307260273111523,2.0402862339365413 z" id="svg_3" opacity="1" class="" fill="#ffffff" fill-opacity="1"/><path d="M104.82801347412104,25.881792141047605 c-7.518618720241324,6.936973195384239 -9.729977167371127,7.3450304421715416 -20.78676940302013,2.0402862339365413 c-6.634075341389405,-3.2644579742984634 -16.364052508760526,-6.120858701809619 -21.229041092446092,-5.712801455022314 c-4.864988583685563,0 -1.3268150682778808,2.4483434807238473 8.845433788519205,5.712801455022314 c19.017682645316285,6.120858701809619 28.747659812687413,15.506175377917705 28.747659812687413,26.931778287962324 c0,10.609488416470008 -5.7495319625374846,12.241717403619239 -20.34449771359418,5.304744208235004 l-12.82587899335285,-5.712801455022314 l10.17224885679709,8.16114493574616 c6.191803651963443,4.896686961447696 20.34449771359418,8.977259429320776 36.266278532928744,10.609488416470008 c31.843561638669136,3.2644579742984634 43.78489725317007,12.649774650406547 36.266278532928744,27.74789278153694 c-7.076347030815363,14.69006088434309 -20.34449771359418,16.730347118279628 -35.82400684350278,6.120858701809619 c-7.518618720241324,-4.896686961447696 -12.383607303926887,-10.201431169682701 -11.499063925074969,-12.241717403619239 c1.3268150682778808,-1.6322289871492337 -0.8845433788519214,-3.672515221085774 -4.4227168942596045,-5.304744208235004 c-3.9804452048336447,-1.224171740361924 -6.634075341389405,0 -6.634075341389405,3.672515221085774 c0,10.201431169682701 -15.037237440482649,5.304744208235004 -15.921780819334575,-5.304744208235004 c-1.3268150682778808,-13.46588914398116 -1.7690867577038425,-14.282003637555778 -7.960890409667284,-9.385316676108081 c-4.864988583685563,3.672515221085774 -10.17224885679709,2.856400727511159 -24.324942918427816,-4.08057246787308 c-16.80632419818649,-7.753087688958853 -23.882671229001854,-15.914232624705008 -14.152694061630726,-15.914232624705008 c2.2113584471298022,0 4.864988583685563,-2.4483434807238473 6.191803651963443,-5.712801455022314 c1.7690867577038425,-4.08057246787308 0,-5.712801455022314 -6.191803651963443,-5.304744208235004 c-12.383607303926887,0.8161144935746167 -10.614520546223046,16.730347118279628 2.653630136555762,26.52372104117502 c5.7495319625374846,4.488629714660388 9.287705477945165,8.977259429320776 7.960890409667284,10.609488416470008 c-1.3268150682778808,1.224171740361924 1.3268150682778808,2.4483434807238473 6.191803651963443,2.4483434807238473 c4.864988583685563,0 11.499063925074969,2.856400727511159 15.037237440482649,6.528915948596927 c4.4227168942596045,5.304744208235004 4.4227168942596045,6.936973195384239 -0.8845433788519214,10.201431169682701 c-7.960890409667284,4.488629714660388 -18.57541095589033,4.896686961447696 -15.479509129908612,0 c1.3268150682778808,-2.0402862339365413 -0.44227168942596085,-4.896686961447696 -4.4227168942596045,-6.120858701809619 c-4.864988583685563,-1.6322289871492337 -6.191803651963443,-0.4080572467873085 -5.307260273111523,4.896686961447696 c1.3268150682778808,6.120858701809619 5.7495319625374846,6.936973195384239 33.170376706947025,5.712801455022314 c19.459954334742253,-1.224171740361924 32.2858333280951,0 34.05492008579894,2.856400727511159 c4.864988583685563,6.936973195384239 -9.729977167371127,10.201431169682701 -17.69086757703841,4.08057246787308 c-4.4227168942596045,-3.2644579742984634 -7.960890409667284,-3.672515221085774 -9.729977167371127,-0.8161144935746167 c-1.7690867577038425,2.0402862339365413 -6.191803651963443,5.304744208235004 -9.729977167371127,6.528915948596927 c-3.5381735154076814,1.224171740361924 0,2.4483434807238473 7.960890409667284,2.4483434807238473 c7.518618720241324,0.4080572467873085 14.152694061630726,1.6322289871492337 14.152694061630726,2.856400727511159 c0,5.712801455022314 -19.459954334742253,38.35738119800695 -22.555856160723973,38.35738119800695 c-3.9804452048336447,0 -13.26815068277881,-14.282003637555778 -12.383607303926887,-19.178690599003474 c0.44227168942596085,-1.6322289871492337 0.44227168942596085,-6.120858701809619 0,-9.385316676108081 c-0.44227168942596085,-4.896686961447696 -2.2113584471298022,-4.488629714660388 -7.076347030815363,1.6322289871492337 c-5.307260273111523,6.528915948596927 -7.518618720241324,6.936973195384239 -13.26815068277881,2.4483434807238473 c-7.518618720241324,-5.712801455022314 -9.287705477945165,-14.282003637555778 -2.2113584471298022,-10.201431169682701 c2.653630136555762,1.224171740361924 4.4227168942596045,0.8161144935746167 4.4227168942596045,-1.224171740361924 c0,-6.936973195384239 -5.7495319625374846,-8.977259429320776 -11.941335614500932,-4.08057246787308 c-9.729977167371127,7.3450304421715416 -15.037237440482649,-3.672515221085774 -12.383607303926887,-23.25926306687655 c1.7690867577038425,-11.833660156831929 0.8845433788519214,-14.282003637555778 -1.7690867577038425,-8.16114493574616 c-2.2113584471298022,4.488629714660388 -4.4227168942596045,12.241717403619239 -4.4227168942596045,17.138404365066933 c-0.44227168942596085,10.201431169682701 27.863116433835494,42.029896419092715 37.59309360120662,42.029896419092715 c7.518618720241324,0 15.037237440482649,12.649774650406547 15.037237440482649,25.7076065476004 c0,14.282003637555778 -12.383607303926887,26.52372104117502 -33.170376706947025,33.05263698977195 l-17.248595887612453,5.712801455022314 l14.152694061630726,12.241717403619239 c7.960890409667284,6.936973195384239 26.094029676131658,16.730347118279628 39.80445204833643,21.218976832940015 c29.632203191539336,10.201431169682701 84.91616436978437,15.914232624705008 84.91616436978437,8.569202182533466 c0,-2.4483434807238473 -3.095901825981723,-4.488629714660388 -6.634075341389405,-4.488629714660388 c-10.614520546223046,0 -38.47763698005855,-14.282003637555778 -50.41897259455947,-25.7076065476004 c-15.037237440482649,-15.098118131130397 -17.248595887612453,-41.2137819255181 -4.864988583685563,-66.92138847311851 c11.941335614500932,-26.115663794387707 19.459954334742253,-32.23652249619732 42.90035387431814,-37.13320945764502 c22.113584471298015,-4.488629714660388 63.244851587912315,-38.765438444794256 62.80257989848635,-51.82327034198811 c0,-5.712801455022314 -0.8845433788519214,-6.528915948596927 -2.653630136555762,-2.0402862339365413 c-3.095901825981723,7.753087688958853 -15.037237440482649,20.402862339365402 -19.017682645316285,20.402862339365402 c-2.2113584471298022,0 -4.864988583685563,-4.488629714660388 -6.191803651963443,-10.201431169682701 c-1.7690867577038425,-5.712801455022314 -4.864988583685563,-9.385316676108081 -7.076347030815363,-8.16114493574616 c-5.307260273111523,2.856400727511159 -10.17224885679709,-12.649774650406547 -6.634075341389405,-22.443148573301936 c1.7690867577038425,-5.712801455022314 5.307260273111523,-7.753087688958853 10.17224885679709,-6.528915948596927 c3.9804452048336447,1.224171740361924 10.17224885679709,0.8161144935746167 13.26815068277881,-1.224171740361924 c4.4227168942596045,-2.4483434807238473 3.5381735154076814,-4.08057246787308 -3.9804452048336447,-5.712801455022314 c-12.82587899335285,-3.2644579742984634 -26.094029676131658,7.3450304421715416 -26.094029676131658,20.402862339365402 c0,9.793373922895391 -6.634075341389405,12.649774650406547 -10.17224885679709,4.08057246787308 c-1.7690867577038425,-4.08057246787308 -2.653630136555762,-4.08057246787308 -2.653630136555762,0 c-0.44227168942596085,2.856400727511159 -4.4227168942596045,5.304744208235004 -9.287705477945165,5.304744208235004 c-10.17224885679709,0 -11.941335614500932,-11.425602910044619 -3.095901825981723,-19.99480509257809 c4.4227168942596045,-4.488629714660388 3.9804452048336447,-5.304744208235004 -2.2113584471298022,-3.2644579742984634 c-6.191803651963443,2.0402862339365413 -7.960890409667284,0.4080572467873085 -7.960890409667284,-7.3450304421715416 c0,-10.201431169682701 6.634075341389405,-14.282003637555778 9.729977167371127,-5.712801455022314 c0.8845433788519214,2.856400727511159 3.5381735154076814,2.4483434807238473 7.076347030815363,-1.6322289871492337 c8.845433788519205,-9.793373922895391 -6.191803651963443,-12.649774650406547 -16.80632419818649,-2.856400727511159 z" id="svg_4" opacity="1" class="" fill="#ffffff" fill-opacity="1"/><path d="M140.65202031762394,32.410708089644515 c0,4.488629714660388 1.3268150682778808,5.712801455022314 2.653630136555762,2.4483434807238473 c1.3268150682778808,-2.856400727511159 0.8845433788519214,-6.528915948596927 -0.44227168942596085,-7.753087688958853 c-1.3268150682778808,-1.6322289871492337 -2.653630136555762,0.8161144935746167 -2.2113584471298022,5.304744208235004 z" id="svg_5" opacity="1" class="" fill="#ffffff" fill-opacity="1"/><path d="M47.3326938487463,43.83631099968916 c0,3.672515221085774 2.2113584471298022,6.528915948596927 4.4227168942596045,6.528915948596927 c2.653630136555762,0 4.4227168942596045,-1.6322289871492337 4.4227168942596045,-3.672515221085774 c0,-2.4483434807238473 -1.7690867577038425,-5.304744208235004 -4.4227168942596045,-6.528915948596927 c-2.2113584471298022,-1.224171740361924 -4.4227168942596045,0.4080572467873085 -4.4227168942596045,3.672515221085774 z" id="svg_6" opacity="1" class="" fill="#ffffff" fill-opacity="1"/><path d="M76.08035366143368,46.28465448041299 c1.3268150682778808,2.0402862339365413 4.864988583685563,4.08057246787308 7.076347030815363,4.08057246787308 c2.653630136555762,0 3.095901825981723,-2.0402862339365413 1.7690867577038425,-4.08057246787308 c-1.3268150682778808,-2.4483434807238473 -4.864988583685563,-4.08057246787308 -7.076347030815363,-4.08057246787308 c-2.653630136555762,0 -3.095901825981723,1.6322289871492337 -1.7690867577038425,4.08057246787308 z" id="svg_7" opacity="1" class="" fill="#ffffff" fill-opacity="1"/><path d="M171.16876688801523,58.11831463724497 c0,2.0402862339365413 2.2113584471298022,5.304744208235004 4.4227168942596045,6.528915948596927 c2.653630136555762,1.224171740361924 4.4227168942596045,0.8161144935746167 4.4227168942596045,-1.6322289871492337 c0,-2.0402862339365413 -1.7690867577038425,-5.304744208235004 -4.4227168942596045,-6.528915948596927 c-2.2113584471298022,-1.224171740361924 -4.4227168942596045,-0.8161144935746167 -4.4227168942596045,1.6322289871492337 z" id="svg_8" opacity="1" class="" fill="#ffffff" fill-opacity="1"/><path d="M47.3326938487463,60.97471536475608 c0,6.936973195384239 7.960890409667284,14.69006088434309 13.26815068277881,13.057831897193854 c3.095901825981723,-0.8161144935746167 1.7690867577038425,-4.08057246787308 -3.9804452048336447,-8.977259429320776 c-5.307260273111523,-4.488629714660388 -9.287705477945165,-6.120858701809619 -9.287705477945165,-4.08057246787308 z" id="svg_9" opacity="1" class="" fill="#ffffff" fill-opacity="1"/><path d="M7.970513489835843,73.21643276837534 c0,4.488629714660388 1.3268150682778808,5.712801455022314 2.653630136555762,2.4483434807238473 c1.3268150682778808,-2.856400727511159 0.8845433788519214,-6.528915948596927 -0.44227168942596085,-7.753087688958853 c-1.3268150682778808,-1.6322289871492337 -2.653630136555762,0.8161144935746167 -2.2113584471298022,5.304744208235004 z" id="svg_10" opacity="1" class="" fill="#ffffff" fill-opacity="1"/><path d="M115.88480570977018,87.09037915914384 c-1.3268150682778808,2.4483434807238473 0.44227168942596085,2.856400727511159 3.9804452048336447,1.6322289871492337 c7.960890409667284,-2.856400727511159 9.287705477945165,-5.712801455022314 3.095901825981723,-5.712801455022314 c-2.653630136555762,0 -5.7495319625374846,1.6322289871492337 -7.076347030815363,4.08057246787308 z" id="svg_11" opacity="1" class="" fill="#ffffff" fill-opacity="1"/><path d="M130.0374997714009,101.37238279669951 c-1.7690867577038425,3.2644579742984634 -0.8845433788519214,6.936973195384239 1.3268150682778808,8.16114493574616 c2.653630136555762,1.6322289871492337 4.4227168942596045,-1.224171740361924 4.4227168942596045,-5.712801455022314 c0,-10.201431169682701 -2.653630136555762,-11.017545663257316 -5.7495319625374846,-2.4483434807238473 z" id="svg_12" opacity="1" class="" fill="#ffffff" fill-opacity="1"/><path d="M15.04686052065119,109.5335277324457 c-1.7690867577038425,3.2644579742984634 -0.8845433788519214,6.936973195384239 1.3268150682778808,8.16114493574616 c2.653630136555762,1.6322289871492337 4.4227168942596045,-1.224171740361924 4.4227168942596045,-5.712801455022314 c0,-10.201431169682701 -2.653630136555762,-11.017545663257316 -5.7495319625374846,-2.4483434807238473 z" id="svg_13" opacity="1" class="" fill="#ffffff" fill-opacity="1"/><path d="M67.23491987291447,140.13782124149384 c-1.3268150682778808,2.0402862339365413 -0.44227168942596085,4.08057246787308 1.7690867577038425,4.08057246787308 c2.653630136555762,0 4.864988583685563,-2.0402862339365413 4.864988583685563,-4.08057246787308 c0,-2.4483434807238473 -0.8845433788519214,-4.08057246787308 -1.7690867577038425,-4.08057246787308 c-1.3268150682778808,0 -3.5381735154076814,1.6322289871492337 -4.864988583685563,4.08057246787308 z" id="svg_14" opacity="1" class="" fill="#ffffff" fill-opacity="1"/></g></g></svg>